<?xml version="1.0" encoding="utf-8"?>
<!-- Svg Vector Icons : http://www.sfont.cn -->
<!DOCTYPE svg PUBLIC "-//W3C//DTD SVG 1.1//EN" "http://www.w3.org/Graphics/SVG/1.1/DTD/svg11.dtd">
<svg version="1.1" xmlns="http://www.w3.org/2000/svg" xmlns:xlink="http://www.w3.org/1999/xlink" x="0px" y="0px" viewBox="0 0 1000 1000" enable-background="new 0 0 1000 1000" xml:space="preserve">
<metadata> Svg Vector Icons : http://www.sfont.cn </metadata>
<g><path d="M461.4,168.3c0-12.8,10.5-23.2,23.3-23.2c12.8,0,23.2,10.5,23.2,23.4l-2.5,347.8l165.3,100.8c11,6.6,14.4,21,7.7,32c-6.7,10.9-21,14.4-32,7.7L470,549.3l0-0.1c-6.7-4.1-11.2-11.5-11.2-20L461.4,168.3z"/><path d="M500,10c135.3,0,257.9,54.8,346.5,143.5C935.1,242.1,990,364.7,990,500c0,135.2-54.9,257.8-143.6,346.4l0,0.1C757.8,935.2,635.3,990,500,990c-135.2,0-257.7-54.8-346.4-143.5l-0.1-0.1h0l0-0.1C64.8,757.7,10,635.2,10,500c0-135.3,54.8-257.9,143.5-346.5l1.5-1.3C243.6,64.3,365.5,10,500,10L500,10z M813.4,186.6C733.2,106.4,622.3,56.7,500,56.7c-121.9,0-232.3,49.2-312.3,128.6l-1.1,1.2C106.3,266.7,56.7,377.6,56.7,500c0,122.5,49.6,233.3,129.7,313.4l0.1,0.1c80.1,80.1,191,129.8,313.4,129.8c122.4,0,233.3-49.7,313.4-129.9l0.1,0.1l0-0.1c80.1-80.1,129.7-191,129.7-313.4C943.3,377.6,893.7,266.7,813.4,186.6z"/></g>
</svg>